Coordinates
version=1
nRows=8
nColumns=40
inDegrees=yes

Units are S.I. units (second, meters, Newtons, ...)
Angles are in degrees.

endheader
time	pelvis_tilt	pelvis_list	pelvis_rotation	pelvis_tx	pelvis_ty	pelvis_tz	hip_flexion_r	hip_adduction_r	hip_rotation_r	knee_angle_r	knee_angle_r_beta	ankle_angle_r	subtalar_angle_r	mtp_angle_r	hip_flexion_l	hip_adduction_l	hip_rotation_l	knee_angle_l	knee_angle_l_beta	ankle_angle_l	subtalar_angle_l	mtp_angle_l	lumbar_extension	lumbar_bending	lumbar_rotation	arm_flex_r	arm_add_r	arm_rot_r	elbow_flex_r	pro_sup_r	wrist_flex_r	wrist_dev_r	arm_flex_l	arm_add_l	arm_rot_l	elbow_flex_l	pro_sup_l	wrist_flex_l	wrist_dev_l
     29.90000000	     -4.67191745	     -3.79843450	      0.70376562	      0.92682221	      0.92285855	      0.44991262	      2.99948414	     -2.80817198	    -13.84449374	     28.44222761	     28.44222761	     16.86254611	      1.64262733	     -5.90439187	     26.21281720	     -4.49941350	     -2.83054996	     25.19718479	     25.19718479	      7.36547597	    -13.17120673	      2.68659710	     -7.79369318	      5.98046270	      3.90443906	     23.50910538	    -17.60673059	      0.64359532	     86.73026237	     44.38097928	      0.00000000	      0.00000000	     -7.14452672	     -8.62795437	      0.63511324	     34.90946469	     45.40757845	      0.00000000	      0.00000000
     29.91371429	     -4.71105638	     -3.64656685	      0.48977205	      0.92656621	      0.92356224	      0.44690279	      4.69007185	     -3.65989704	    -13.23987138	     32.12254998	     32.12254998	     15.57629792	      0.05241032	     -7.14358156	     25.62933373	     -4.24573792	     -3.21590524	     25.03778792	     25.03778792	      7.82884368	    -12.99487493	      2.29839735	     -7.79941440	      5.67634916	      3.78455204	     21.76787511	    -17.63410527	      1.14807046	     85.98131695	     44.38976584	      0.00000000	      0.00000000	     -6.22716803	     -8.91285126	      0.23635985	     35.63846758	     45.47545215	      0.00000000	      0.00000000
     29.92742857	     -4.81052928	     -3.56050172	      0.27933960	      0.92612904	      0.92402793	      0.44415627	      6.66336546	     -4.37935259	    -12.50949541	     36.04397629	     36.04397629	     13.99426425	     -1.84339189	     -8.39962756	     25.10411626	     -4.08266821	     -3.59944307	     24.82978127	     24.82978127	      8.27422223	    -12.67871662	      1.80635447	     -7.73306721	      5.37897752	      3.63060546	     19.99114374	    -17.66734896	      1.63234569	     85.14185994	     44.40284703	      0.00000000	      0.00000000	     -5.36592930	     -9.22641676	     -0.20106099	     36.44628318	     45.54671847	      0.00000000	      0.00000000
     29.94114286	     -4.83592177	     -3.53207399	      0.10712115	      0.92559688	      0.92444578	      0.44157846	      8.52297528	     -4.84242007	    -11.57962469	     39.53616612	     39.53616612	     10.46270948	     -5.32210538	    -14.14815122	     24.51080305	     -4.01909164	     -4.11688470	     24.57707044	     24.57707044	      8.19354170	    -12.36561964	     -0.05419822	     -7.79530754	      5.21238484	      3.08220381	     18.49036534	    -17.51092043	      2.54044863	     83.81530426	     44.50011364	      0.00000000	      0.00000000	     -5.00866000	     -9.39383601	     -2.38552594	     38.38869363	     45.84259016	      0.00000000	      0.00000000
     29.95485714	     -4.86917850	     -3.38166284	     -0.04632462	      0.92489190	      0.92476667	      0.43905833	     10.73451637	     -5.56590144	    -10.91020636	     43.74398597	     43.74398597	      8.97256055	     -7.01134905	    -13.95403094	     23.94569227	     -3.80825499	     -4.58258013	     24.37854676	     24.37854676	      8.66755792	    -11.84629776	     -0.46130944	     -7.81423535	      4.89256099	      2.79209302	     16.67600879	    -17.41202206	      2.93452599	     82.82446412	     44.52151232	      0.00000000	      0.00000000	     -3.96096146	     -9.80160878	     -2.57706775	     38.88904727	     45.88174371	      0.00000000	      0.00000000
     29.96857143	     -4.76506740	     -3.18076011	     -0.15182745	      0.92422416	      0.92517239	      0.43665713	     12.81825609	     -6.29446208	    -10.30585809	     47.80637488	     47.80637488	      7.52083746	     -8.57041357	    -13.54856387	     23.27905803	     -3.55189679	     -5.10641143	     24.26734656	     24.26734656	      9.13000292	    -11.33980233	     -0.88643910	     -8.01967358	      4.53317582	      2.39038377	     14.83026398	    -17.18493818	      3.30794105	     81.83795363	     44.53947872	      0.00000000	      0.00000000	     -2.84270623	    -10.34096015	     -2.74592112	     39.40223301	     45.91848924	      0.00000000	      0.00000000
     29.98228571	     -4.73741064	     -3.22300548	     -0.26359586	      0.92337655	      0.92549962	      0.43474810	     15.07819015	     -6.50920637	     -9.48625068	     51.79993739	     51.79993739	      6.99381297	     -9.86233402	    -10.15020948	     22.74443663	     -3.70114518	     -5.93387060	     24.21184937	     24.21184937	      9.52565100	    -10.05763512	     -2.09413579	     -8.12489389	      4.38188501	      2.09026601	     12.96848638	    -16.82244328	      3.12649657	     79.91921866	     44.63581499	      0.00000000	      0.00000000	     -1.70746281	    -10.86696738	     -2.79338334	     40.10270552	     45.94904410	      0.00000000	      0.00000000
     29.99600000	     -4.63237400	     -3.16742857	     -0.33529612	      0.92256779	      0.92599381	      0.43273747	     17.13938894	     -6.87394685	     -8.92231051	     55.31214449	     55.31214449	      6.04683643	    -10.94810195	     -8.56565740	     22.06942849	     -3.60586827	     -6.35038426	     24.03852028	     24.03852028	      9.95365981	     -9.44989573	     -2.56289717	     -8.31142580	      4.19450006	      1.92631676	     10.98857847	    -16.75543433	      3.32792687	     78.41072338	     44.68495883	      0.00000000	      0.00000000	     -0.47562469	    -11.33271770	     -2.82864522	     40.51953381	     45.97437860	      0.00000000	      0.00000000
